<svg width="68" height="67" viewBox="0 0 68 67" xmlns="http://www.w3.org/2000/svg"><path d="M65.929 19.926c-3.018-3.001-9.203-4.123-14.34-1.524a8.823 8.823 0 00-1.699-1.627c2.638-5.045 1.193-11.338-2.178-14.538-2.975-2.82-7.003-2.985-10.513-.43a2.081 2.081 0 00-.436 2.967c.725.937 2.092 1.124 3.056.424 1.814-1.325 3.4-1.298 4.843.072 2.199 2.086 3.035 6.52 1.192 9.796-.717-.13-1.472-.2-2.269-.2-3.492 0-6.973 1.267-9.052 2.025l-.436.158a92.986 92.986 0 00-5.386 2.127c-4.518-1.147-9.37-1.98-13.719-1.98-5.539 0-9.628 1.338-12.154 3.976C.704 23.401-.234 26.449.049 30.235c.287 3.808 1.923 6.55 4.732 8.078a30.938 30.938 0 00-1.389 2.703c-5.044 11.318-.963 20.98-.787 21.388l.338.78.798.339c.182.076 4.517 1.884 10.806 1.884 4.438 0 9.545-.867 14.751-3.51.026.05.044.106.071.157 1.078 2.035 3.427 4.54 8.494 4.898.458.031.902.048 1.33.048 4.446 0 7.867-1.744 9.895-5.044 3.376-5.495 2.352-14.536.266-22.427a88.596 88.596 0 002.97-6.754c1.784-4.548 1.884-7.98 1.202-10.554 3.363-1.758 7.431-1.17 9.283.67 1.184 1.176 1.104 2.657-.242 4.395a2.081 2.081 0 00.437 2.968c.394.285.852.423 1.307.423.664 0 1.318-.292 1.747-.847 3.148-4.079 1.998-7.79-.129-9.904zM45.341 59.783c-1.386 2.258-3.673 3.19-7.16 2.94-3.303-.233-4.395-1.601-4.93-2.61-.075-.14-.116-.306-.18-.455-.574-1.343-.73-3.038-.564-4.966.113-1.332.364-2.76.742-4.262.606-2.406 1.508-4.969 2.548-7.513a96.88 96.88 0 012.495-5.566 120.416 120.416 0 013.47-6.618l.118.114c1.64 3.924 3.355 9.265 4.3 14.46 1.04 5.715 1.148 11.241-.84 14.476zM4.403 29.926c-.195-2.6.337-4.52 1.63-5.87 1.669-1.741 4.684-2.624 8.96-2.624 2.376 0 4.945.282 7.53.737 5.405.954 10.865 2.671 14.732 4.188l.081.079a131.712 131.712 0 01-6.812 3.374 99.705 99.705 0 01-5.728 2.428c-2.583.999-5.232 1.866-7.754 2.456-1.705.399-3.346.663-4.872.747-.344.02-.696.044-1.028.044-1.667 0-2.99-.236-4.01-.736-1.692-.83-2.546-2.39-2.729-4.823zm29.399 3.065l1.2 1.165a101.424 101.424 0 00-2.572 5.493l-4.287-4.162c1.989-.811 3.903-1.664 5.659-2.496zm-13.208 5.15l9.116 8.854c-.68 2.248-1.194 4.48-1.439 6.591L13.823 39.56c2.157-.243 4.45-.748 6.771-1.417zm-3.18 22.882L5.49 49.443a24.576 24.576 0 011.73-6.308L24.076 59.5a27.578 27.578 0 01-6.66 1.523zm30.833-29.76c-.27.688-.544 1.358-.82 2.015-1.145-3.255-2.317-5.958-3.168-7.61a2.11 2.11 0 00-.638-1.027 2.183 2.183 0 00-1.061-.617c-1.728-.85-4.254-1.883-7.235-2.894.098-.036.193-.075.292-.11l.45-.164c1.803-.657 4.818-1.755 7.52-1.755 1.786 0 3.136.468 4.128 1.431 2.276 2.212 2.456 5.822.532 10.732z" fill="#fff" fill-rule="nonzero"/></svg>
